<?xml version="1.0" encoding="UTF-8" standalone="no"?> <svg width="512" height="512" viewBox="0 0 512 512" fill="none" xmlns="http://www.w3.org/2000/svg">
<path d="M262.1 490.667C261.465 490.667 260.829 490.641 260.194 490.584C255.712 490.184 251.472 488.377 248.079 485.422C244.686 482.467 242.314 478.515 241.303 474.131L203.162 308.831L37.87 270.693C33.4845 269.682 29.5309 267.311 26.5748 263.917C23.6188 260.523 21.8118 256.282 21.4123 251.799C21.0129 247.316 22.0414 242.822 24.3509 238.959C26.6603 235.096 30.1322 232.063 34.27 230.293L418.27 65.7199C422.189 64.0417 426.52 63.5759 430.706 64.3825C434.892 65.1892 438.74 67.2314 441.754 70.2457C444.769 73.26 446.811 77.1081 447.617 81.2939C448.424 85.4798 447.958 89.8113 446.28 93.7299L281.707 477.73C280.063 481.568 277.329 484.84 273.844 487.139C270.359 489.439 266.276 490.665 262.1 490.667V490.667ZM111.073 243.8L225.75 270.26C229.646 271.159 233.211 273.135 236.038 275.962C238.865 278.789 240.841 282.354 241.74 286.25L268.2 400.927L386.047 125.953L111.073 243.8Z" fill="#FFFFFF"/>
</svg>
